<svg viewBox="0 0 960 480" xmlns="http://www.w3.org/2000/svg" id="logo">
    <defs>
        <mask id="logo_mask">
            <rect x="0" y="0" width="960" height="480" fill="white"/>
            <g id="logo">
                <path id="j" d="M118.031 166.688H172.219V284.438C172.281 293.25 170.938 301.469 168.188 309.094C165.5 316.781 161.5 323.562 156.188 329.438C150.875 335.375 144.375 340.281 136.688 344.156C129 348.094 120.281 350.688 110.531 351.938L103.781 340.594C106.281 338.719 108.406 336.719 110.156 334.594C111.969 332.469 113.438 330 114.562 327.188C115.75 324.438 116.625 321.25 117.188 317.625C117.75 314.062 118.031 309.875 118.031 305.062V166.688Z" fill="black">
                    <animateTransform
                        attributeName="transform"
                        dur="16s"
                        type="translate"
                        values="0 -380; 0 -380; 0 40; 0 0; 0 0; 0 380; 0 380"
                        keyTimes="0; 0.05; 0.12; 0.135; 0.51; 0.56; 1"
                        repeatCount="indefinite"
                        begin="indefinite"
                    />
                    <animateTransform
                        attributeName="transform"
                        dur="16s"
                        type="rotate"
                        values="0 145 300; 0 145 300; 30 145 300; 30 145 300"
                        keyTimes="0; 0.49; 0.53; 1"
                        repeatCount="indefinite"
                        begin="indefinite"
                        additive="sum"
                    />
                </path>

                <path id="o" d="M199.781 236.062C199.781 225.5 201.469 215.844 204.844 207.094C208.219 198.281 213.25 190.719 219.938 184.406C226.625 178.094 234.969 173.188 244.969 169.688C254.969 166.188 266.594 164.438 279.844 164.438C293.094 164.438 304.719 166.188 314.719 169.688C324.719 173.188 333.062 178.094 339.75 184.406C346.438 190.719 351.469 198.281 354.844 207.094C358.219 215.844 359.906 225.5 359.906 236.062C359.906 246.75 358.219 256.531 354.844 265.406C351.469 274.281 346.438 281.875 339.75 288.188C333.062 294.5 324.719 299.406 314.719 302.906C304.719 306.406 293.094 308.156 279.844 308.156C266.594 308.156 254.969 306.406 244.969 302.906C234.969 299.406 226.625 294.5 219.938 288.188C213.25 281.875 208.219 274.281 204.844 265.406C201.469 256.531 199.781 246.75 199.781 236.062ZM279.844 288.75C283.594 288.75 286.906 288.094 289.781 286.781C292.656 285.469 295.062 282.906 297 279.094C298.938 275.281 300.406 269.938 301.406 263.062C302.406 256.188 302.906 247.188 302.906 236.062C302.906 225.062 302.406 216.156 301.406 209.344C300.406 202.531 298.938 197.25 297 193.5C295.062 189.75 292.656 187.219 289.781 185.906C286.906 184.594 283.594 183.938 279.844 183.938C276.094 183.938 272.75 184.594 269.812 185.906C266.938 187.219 264.531 189.75 262.594 193.5C260.656 197.25 259.188 202.531 258.188 209.344C257.188 216.156 256.688 225.062 256.688 236.062C256.688 247.188 257.188 256.188 258.188 263.062C259.188 269.938 260.656 275.281 262.594 279.094C264.531 282.906 266.938 285.469 269.812 286.781C272.75 288.094 276.094 288.75 279.844 288.75Z" fill="black">
                    <animateTransform
                        attributeName="transform"
                        dur="16s"
                        type="translate"
                        values="0 -380; 0 -380; 0 40; 0 0; 0 0; 0 380; 0 380"
                        keyTimes="0; 0.07; 0.14; 0.155; 0.47; 0.52; 1"
                        repeatCount="indefinite"
                        begin="indefinite"
                    />
                    <animateTransform
                        attributeName="transform"
                        dur="16s"
                        type="rotate"
                        values="0 280 300; 0 280 300; 30 280 300; 30 280 300"
                        keyTimes="0; 0.45; 0.49; 1"
                        repeatCount="indefinite"
                        begin="indefinite"
                        additive="sum"
                    />
                </path>

                <path id="k" d="M387.375 166.688H441.562V247.406L501.844 166.688H528.938L484.5 226.5L542.719 306.094H481.688L450.562 262.312L441.562 274.688V306H387.375V166.688Z" fill="black">
                    <animateTransform
                        attributeName="transform"
                        dur="16s"
                        type="translate"
                        values="0 -380; 0 -380; 0 40; 0 0; 0 0; 0 380; 0 380"
                        keyTimes="0; 0.09; 0.16; 0.175; 0.43; 0.48; 1"
                        repeatCount="indefinite"
                        begin="indefinite"
                    />
                    <animateTransform
                        attributeName="transform"
                        dur="16s"
                        type="rotate"
                        values="0 440 240; 0 440 240; 370 440 240; 370 440 240; 390 440 240; 390 440 240"
                        keyTimes="0; 0.19; 0.24; 0.41; 0.45; 1"
                        repeatCount="indefinite"
                        additive="sum"
                        begin="indefinite"
                    />
                </path>

                <path id="e" d="M561 166.688H678.75V188.156H615.281L615.188 225.75H663.75V247.219H615.188V284.531H678.75V306H561V166.688Z" fill="black">
                    <animateTransform
                        attributeName="transform"
                        dur="16s"
                        type="translate"
                        values="0 -380; 0 -380; 0 40; 0 0; 0 0; 0 380; 0 380"
                        keyTimes="0; 0.11; 0.18; 0.195; 0.39; 0.44; 1"
                        repeatCount="indefinite"
                        begin="indefinite"
                    />
                    <animateTransform
                        attributeName="transform"
                        dur="16s"
                        type="rotate"
                        values="0 620 300; 0 620 300; 30 620 300; 30 620 300"
                        keyTimes="0; 0.37; 0.41; 1"
                        repeatCount="indefinite"
                        begin="indefinite"
                        additive="sum"
                    />
                </path>

                <path id="r" d="M706.688 166.688H787.031C797.406 166.688 806.469 167.781 814.219 169.969C822.031 172.156 828.531 175.219 833.719 179.156C838.969 183.094 842.906 187.812 845.531 193.312C848.156 198.812 849.469 204.875 849.469 211.5C849.469 219.688 847.531 226.969 843.656 233.344C839.781 239.656 834.031 244.688 826.406 248.438L855.656 306.094H794.438L772.312 255.469H760.875V306H706.688V166.688ZM764.156 238.5C768.594 238.5 772.562 237.875 776.062 236.625C779.562 235.375 782.531 233.625 784.969 231.375C787.406 229.062 789.281 226.344 790.594 223.219C791.906 220.031 792.562 216.562 792.562 212.812C792.562 209.062 791.906 205.625 790.594 202.5C789.281 199.312 787.406 196.594 784.969 194.344C782.531 192.031 779.562 190.25 776.062 189C772.562 187.75 768.594 187.125 764.156 187.125H760.969L760.875 238.5H764.156Z" fill="black">
                    <animateTransform
                        attributeName="transform"
                        dur="16s"
                        type="translate"
                        values="0 -380; 0 -380; 0 40; 0 0; 0 0; 0 380; 0 380"
                        keyTimes="0; 0.13; 0.2; 0.215; 0.35; 0.40; 1"
                        repeatCount="indefinite"
                        begin="indefinite"
                    />
                    <animateTransform
                        attributeName="transform"
                        dur="16s"
                        type="rotate"
                        values="0 770 300; 0 770 300; 30 770 300; 30 770 300"
                        keyTimes="0; 0.33; 0.37; 1"
                        repeatCount="indefinite"
                        begin="indefinite"
                        additive="sum"
                    />
                </path>
            </g>
        </mask>
    </defs>
    <rect width="100%" height="100%" fill="#498762" mask="url(#logo_mask)"/>
</svg>